<?xml version="1.0" encoding="utf-8"?>
<!-- Generator: Adobe Illustrator 16.0.0, SVG Export Plug-In . SVG Version: 6.00 Build 0)  -->
<!DOCTYPE svg PUBLIC "-//W3C//DTD SVG 1.1//EN" "http://www.w3.org/Graphics/SVG/1.1/DTD/svg11.dtd">
<svg version="1.1" id="Capa_1" xmlns="http://www.w3.org/2000/svg" xmlns:xlink="http://www.w3.org/1999/xlink" x="0px" y="0px"
	 width="220.5px" height="220.5px" viewBox="0 0 220.5 220.5" enable-background="new 0 0 220.5 220.5" xml:space="preserve">
<g>
	<path id="path4400-3-2" fill="#D80027" d="M165.663,90.016c0-0.018-0.009-0.076-0.01-0.121c-0.009-0.443-0.047-2.017-0.242-2.875
		c-0.218-0.959-0.514-1.919-1.02-2.764c-0.756-1.264-1.836-2.329-2.935-3.309c-0.917-0.818-1.99-1.443-3.016-2.118
		c-0.413-0.271-0.799-0.621-1.271-0.766c-0.065-0.021-0.123-0.047-0.191-0.061c-0.044-15.765-0.156-31.53-0.515-47.289
		c-0.316-9.463-5.07-18.746-13.104-23.927c-2.59-2.221-5.648-3.639-8.958-4.277c-9.963-3.691-20.822-2.114-31.221-2.452
		C94.89-0.257,86.55,1.484,79.174,5.241C72.29,9.609,66.147,16.138,64.9,24.488c-2.432,11.697-1.051,23.744-1.453,35.598
		c0.014,5.979,0.009,11.957,0.01,17.936c-0.043,0.01-0.08,0.027-0.121,0.041c-0.472,0.145-0.858,0.495-1.271,0.767
		c-1.026,0.674-2.099,1.3-3.016,2.118c-1.099,0.98-2.178,2.045-2.935,3.309c-0.506,0.844-0.801,1.804-1.019,2.764
		c-0.194,0.858-0.232,2.432-0.242,2.875c-0.041,0.199-0.005,0.414,0.101,0.555c0.107,0.142,0.212,0.186,0.455,0.222
		c0.242,0.036,0.348,0,0.958-0.161c0.61-0.161,1.674-0.546,2.643-0.958c0.968-0.413,2.298-1.098,3.137-1.554
		c0.537-0.292,0.942-0.528,1.312-0.757c-0.004,7.778-0.004,15.554-0.01,23.333c-0.036,0.026-0.074,0.056-0.111,0.09
		c-0.188,0.18-0.439,0.44-0.616,0.938c-0.175,0.498-0.126,0.523-0.202,2.038c-0.076,1.514-0.049,5.352,0.02,6.476
		s0.087,1.324,0.303,1.877c0.174,0.446,0.258,0.778,0.595,0.847c-0.003,11.851,0.011,23.708,0.061,35.558
		c-0.148,0.437-0.11,0.534-0.182,1.978c-0.076,1.515-0.049,5.362,0.02,6.486c0.057,0.926,0.084,1.228,0.212,1.614
		c0.062,9.791,0.153,19.584,0.292,29.375c-0.016,6.846,4.251,13.65,10.834,15.948c14.48,5.87,30.535,5.764,45.917,5.165
		c10.044-0.767,20.612-2.062,29.284-7.505c6.907-4.876,7.111-14.274,7.081-21.93c0.076-7.209,0.105-14.417,0.122-21.627
		c0.032-0.245,0.061-0.544,0.09-1.039c0.069-1.124,0.096-4.972,0.02-6.486c-0.049-0.995-0.049-1.328-0.09-1.594
		c0.002-9.233-0.02-18.466-0.02-27.7c-0.015-2.743-0.022-5.487-0.03-8.231c0.356-0.058,0.438-0.402,0.615-0.857
		c0.216-0.553,0.233-0.753,0.303-1.877c0.069-1.123,0.096-4.961,0.021-6.476c-0.076-1.514-0.027-1.541-0.202-2.038
		c-0.176-0.498-0.427-0.758-0.616-0.938c-0.047-0.044-0.094-0.089-0.141-0.121c-0.01-7.778-0.02-15.554-0.03-23.332
		c0.383,0.237,0.8,0.481,1.362,0.787c0.84,0.456,2.168,1.141,3.137,1.553c0.968,0.413,2.032,0.797,2.643,0.958
		c0.611,0.161,0.716,0.198,0.958,0.161c0.243-0.036,0.348-0.081,0.454-0.222c0.073-0.096,0.106-0.228,0.111-0.363
		C165.664,90.062,165.664,90.038,165.663,90.016L165.663,90.016z M157.048,116.535c0.003,0.288,0.003,0.614-0.01,0.928
		c-0.001-0.447,0.001-0.894,0-1.341C157.044,116.264,157.047,116.41,157.048,116.535z M153.356,198.051
		c0.051,2.009-0.25,4.274-0.877,5.498c-1.535,2.995-3.899,4.79-7.233,5.487c-1.088,0.227-2.669,0.771-3.521,1.201
		c-2.533,1.28-6.194,2.458-7.292,2.35l-1.02-0.101l0.938-0.999c0.514-0.549,1.994-1.488,3.288-2.079
		c7.496-3.416,11.861-7.977,14.304-14.929c0.212-0.604,0.236-0.6,0.655-0.03C153.067,195.084,153.317,196.488,153.356,198.051
		L153.356,198.051z M152.721,89.945c0.004,0.65,0.002,1.394,0,2.22c-0.01,5.506-0.132,14.678-0.333,24.291l-0.141,6.859
		l-4.197,2.673c-2.303,1.468-4.408,2.712-4.68,2.764c-0.489,0.094-0.488,0.069-0.455-2.068c0.019-1.191,0.107-4.294,0.202-6.89
		c0.266-7.33,1.441-18.633,2.673-25.773l0.484-2.855l1.432-0.918c0.785-0.506,2.157-1.445,3.057-2.088
		c0.9-0.643,1.731-1.204,1.846-1.251C152.667,86.885,152.709,87.995,152.721,89.945L152.721,89.945z M152.489,25.598
		c0,0.524,0.002,1.119,0,1.795c-0.031,7.286-0.59,8.586-2.472,5.8c-1.087-1.61-7.383-11.976-9.825-16.17
		c-2.077-3.567-3.273-4.971-5.588-6.567c-0.932-0.642-1.902-1.617-2.169-2.179c-0.495-1.043-0.639-2.669-0.272-3.037
		c0.114-0.114,1.026-0.212,2.028-0.212c1.945,0,3.398,0.591,6.758,2.724c2.766,1.755,6.64,5.169,8.161,7.192
		c0.778,1.036,1.866,3.032,2.411,4.439C152.381,21.606,152.489,21.928,152.489,25.598L152.489,25.598z M152.075,135.297
		c0.002,0.832-0.03,2.141-0.08,4.167c-0.428,17-0.804,28.058-0.949,28.193c-0.242,0.228-4.142,0.858-5.316,0.858
		c-1.829,0-1.776,0.143-2.108-6.163c-0.222-4.22-0.72-20.212-0.746-24.018c-0.002-0.371,0.731-0.777,4.237-2.351
		c2.329-1.046,4.414-1.975,4.629-2.058C151.976,133.836,152.072,133.912,152.075,135.297L152.075,135.297z M149.634,177.836
		c0.012,0.367-0.015,0.821-0.061,1.402c-0.181,2.275-0.946,7.672-1.13,7.969c-0.394,0.637-1.558-2.642-2.37-6.657
		c-0.605-2.989-0.641-3.336-0.343-4.076c0.276-0.687,1.107-0.824,2.4-0.394C149.23,176.446,149.598,176.735,149.634,177.836z
		 M147.748,57.433c0,0.971-5.887,27.747-7.122,32.391c-0.832,3.131-2.775,8.884-4.317,12.781
		c-3.506,8.866-4.701,13.401-4.701,17.875c0,3.406-0.09,3.603-3.077,6.396l-3.077,2.875h-15.252H94.939l-2.996-2.804l-2.986-2.794
		l-0.323-5.427c-0.25-4.281-0.801-6.667-2.613-11.319c-4.514-11.59-6.715-19.138-9.714-33.208
		c-1.673-7.851-3.186-14.896-3.359-15.655c-0.253-1.112,0.137-1.608,2.018-2.562c2.893-1.467,12.96-4.694,17.542-5.619
		c10.104-2.041,28.071-1.88,36.93,0.323C137.701,52.739,147.748,56.442,147.748,57.433L147.748,57.433z M144.57,201.279
		c0.083,1.712-1.396,2.23-4.893,4.095c-9.512,5.071-17.704,6.606-32.784,6.133c-11.832-0.372-16.378-1.378-24.714-5.478
		c-7.264-3.573-7.313-3.667-4.801-8.938c1.138-2.39,2.673-5.956,3.409-7.919c0.736-1.962,1.451-3.57,1.584-3.57
		s2.165,0.973,4.519,2.158c7.388,3.72,13.262,4.94,23.615,4.903c10.364-0.038,15.513-1.133,22.959-4.882
		c2.463-1.24,4.551-2.166,4.64-2.058c0.088,0.107,1.73,3.799,3.651,8.201C143.491,197.899,144.505,199.947,144.57,201.279
		L144.57,201.279z M88.636,5.978c0.022,0.246-0.021,0.55-0.111,0.928c-0.441,1.845-0.654,2.115-2.794,3.672
		c-2.54,1.847-3.38,2.899-6.032,7.485c-3.931,6.794-9.656,15.932-10.188,16.261c-1.141,0.703-1.332-0.134-1.402-6.416
		c-0.058-5.187,0.011-6.17,0.525-7.585c1.716-4.731,4.919-8.496,10.249-12.044c3.923-2.612,5.357-3.229,7.495-3.238
		C87.943,5.034,88.571,5.239,88.636,5.978L88.636,5.978z M87.012,212.486l-0.928,0.091c-1.076,0.11-5.155-1.195-7.172-2.3
		c-0.753-0.413-2.356-0.959-3.561-1.21c-5.128-1.069-8.309-5.03-8.221-10.218c0.018-1.036,0.128-2.307,0.253-2.825
		c0.124-0.518,0.379-1.211,0.564-1.543c0.316-0.564,0.357-0.542,0.706,0.323c1.627,4.028,2.975,6.245,5.074,8.373
		c2.505,2.54,4.829,4.137,9.048,6.204c1.603,0.785,3.217,1.798,3.581,2.259L87.012,212.486z M77.601,137.88l-0.051,4.398
		c-0.061,5.339-0.428,15.836-0.746,21.517c-0.19,3.384-0.298,4.216-0.585,4.438c-0.488,0.378-2.415,0.338-4.762-0.111l-1.967-0.383
		l-0.151-0.989c-0.145-0.958-0.485-12.394-0.777-26.187c-0.101-4.778-0.075-6.758,0.091-6.698c0.129,0.047,2.195,0.968,4.59,2.048
		L77.601,137.88L77.601,137.88z M77.51,124.887c0.003,2.368-0.09,3.904-0.312,3.904c-0.288,0-8.099-4.834-8.655-5.356
		c-0.274-0.258-0.422-5.876-0.787-30.353l-0.101-6.405l1.241,0.898c0.682,0.497,2.159,1.5,3.278,2.229
		c1.241,0.808,2.076,1.508,2.138,1.786c0.556,2.485,1.822,11.981,2.391,17.895C77.205,114.697,77.503,120.94,77.51,124.887
		L77.51,124.887z M74.846,177.634c-0.012,0.913-0.235,2.208-0.635,3.975c-1.003,4.425-1.991,6.66-2.3,5.185
		c-0.298-1.422-0.811-5.604-0.938-7.677l-0.131-2.229l0.726-0.444c0.4-0.243,1.114-0.506,1.583-0.585
		C74.329,175.66,74.868,176.113,74.846,177.634L74.846,177.634z"/>
</g>
</svg>
