<?xml version="1.0" encoding="utf-8"?>
<!-- Generator: Adobe Illustrator 16.0.0, SVG Export Plug-In . SVG Version: 6.00 Build 0)  -->
<!DOCTYPE svg PUBLIC "-//W3C//DTD SVG 1.1//EN" "http://www.w3.org/Graphics/SVG/1.1/DTD/svg11.dtd">
<svg version="1.1" id="Capa_1" xmlns="http://www.w3.org/2000/svg" xmlns:xlink="http://www.w3.org/1999/xlink" x="0px" y="0px"
	 width="110.827px" height="219.233px" viewBox="54.837 0 110.827 219.233" enable-background="new 54.837 0 110.827 219.233"
	 xml:space="preserve">
<g>
	<path id="path4400-3-2" fill="#D80027" stroke="#000000" stroke-width="5" stroke-miterlimit="10" d="M165.592,90.016
		c0-0.018,0.072-0.076,0.071-0.121c-0.009-0.443-0.006-2.017-0.201-2.875c-0.218-0.959-0.494-1.919-1-2.764
		c-0.757-1.264-1.827-2.329-2.927-3.309c-0.918-0.818-1.986-1.443-3.013-2.118c-0.413-0.271-0.797-0.621-1.27-0.766
		c-0.065-0.021-0.122-0.047-0.19-0.061c-0.044-15.765-0.155-31.53-0.514-47.289c-0.316-9.463-5.074-18.746-13.114-23.927
		c-2.592-2.221-5.652-3.639-8.965-4.277c-9.971-3.691-20.839-2.114-31.247-2.452c-8.299-0.313-16.646,1.428-24.028,5.185
		c-6.89,4.368-13.037,10.897-14.285,19.247c-2.434,11.697-1.052,23.744-1.455,35.598c0.014,5.979,0.009,11.957,0.01,17.936
		c-0.043,0.01-0.08,0.027-0.121,0.041c-0.473,0.145-0.858,0.495-1.272,0.767c-1.027,0.674-2.101,1.3-3.019,2.118
		c-1.1,0.98-2.18,2.045-2.937,3.309c-0.506,0.844-0.802,1.804-1.02,2.764c-0.194,0.858-0.232,2.432-0.242,2.875
		c-0.041,0.199-0.005,0.414,0.101,0.555c0.107,0.142,0.212,0.186,0.455,0.222c0.242,0.036,0.348,0,0.959-0.161
		c0.611-0.161,1.675-0.546,2.645-0.958c0.969-0.413,2.3-1.098,3.139-1.554c0.538-0.292,0.943-0.528,1.312-0.757
		c-0.004,7.778-0.004,15.554-0.01,23.333c-0.036,0.026-0.074,0.056-0.111,0.09c-0.188,0.18-0.44,0.44-0.616,0.938
		c-0.175,0.498-0.126,0.523-0.202,2.038c-0.076,1.514-0.049,5.352,0.02,6.476s0.087,1.324,0.303,1.877
		c0.174,0.446,0.259,0.778,0.595,0.847c-0.003,11.851,0.011,23.708,0.061,35.558c-0.148,0.437-0.11,0.534-0.182,1.978
		c-0.076,1.515-0.049,5.362,0.02,6.486c0.057,0.926,0.084,1.228,0.212,1.614c0.062,9.791,0.154,19.584,0.293,29.375
		c-0.016,6.846,4.255,13.65,10.843,15.948c14.492,5.87,30.561,5.764,45.956,5.165c10.053-0.767,20.629-2.062,29.309-7.505
		c6.913-4.876,7.117-14.274,7.087-21.93c0.076-7.209,0.105-14.417,0.122-21.627c0.032-0.245,0.061-0.544,0.09-1.039
		c0.069-1.124,0.096-4.972,0.02-6.486c-0.049-0.995-0.049-1.328-0.09-1.594c0.002-9.233-0.02-18.466-0.02-27.7
		c-0.015-2.743-0.022-5.487-0.03-8.231c0.356-0.058,0.438-0.402,0.616-0.857c0.216-0.553,0.233-0.753,0.303-1.877
		c0.069-1.123,0.097-4.961,0.021-6.476c-0.076-1.514-0.027-1.541-0.202-2.038c-0.176-0.498-0.427-0.758-0.617-0.938
		c-0.047-0.044-0.094-0.089-0.141-0.121c-0.01-7.778-0.02-15.554-0.03-23.332c0.383,0.237,0.801,0.481,1.363,0.787
		c0.841,0.456,2.17,1.141,3.14,1.553c0.969,0.413,2.034,0.797,2.645,0.958c0.612,0.161,0.716,0.198,0.959,0.161
		c0.243-0.036,0.266-0.081,0.373-0.222c0.072-0.096,0.029-0.228,0.029-0.363C165.592,90.062,165.592,90.038,165.592,90.016
		L165.592,90.016z M157.134,116.535c0.003,0.288,0.003,0.614-0.01,0.928c-0.001-0.447,0.001-0.894,0-1.341
		C157.129,116.264,157.132,116.41,157.134,116.535z M153.438,198.051c0.051,2.009-0.251,4.274-0.878,5.498
		c-1.537,2.995-3.903,4.79-7.239,5.487c-1.089,0.227-2.672,0.771-3.524,1.201c-2.536,1.28-6.2,2.458-7.299,2.35l-1.02-0.101
		l0.939-0.999c0.515-0.549,1.996-1.488,3.291-2.079c7.502-3.416,11.871-7.977,14.315-14.929c0.213-0.604,0.237-0.6,0.656-0.03
		C153.149,195.084,153.399,196.488,153.438,198.051L153.438,198.051z M152.802,89.945c0.005,0.65,0.002,1.394,0,2.22
		c-0.01,5.506-0.132,14.678-0.333,24.291l-0.141,6.859l-4.2,2.673c-2.305,1.468-4.412,2.712-4.684,2.764
		c-0.49,0.094-0.488,0.069-0.455-2.068c0.019-1.191,0.107-4.294,0.202-6.89c0.267-7.33,1.442-18.633,2.676-25.773l0.484-2.855
		l1.434-0.918c0.785-0.506,2.159-1.445,3.06-2.088c0.901-0.643,1.733-1.204,1.848-1.251
		C152.749,86.885,152.791,87.995,152.802,89.945L152.802,89.945z M152.571,25.598c0,0.524,0.002,1.119,0,1.795
		c-0.031,7.286-0.59,8.586-2.474,5.8c-1.088-1.61-7.389-11.976-9.833-16.17c-2.078-3.567-3.275-4.971-5.593-6.567
		c-0.933-0.642-1.904-1.617-2.171-2.179c-0.495-1.043-0.64-2.669-0.273-3.037c0.115-0.114,1.027-0.212,2.03-0.212
		c1.946,0,3.401,0.591,6.764,2.724c2.768,1.755,6.646,5.169,8.167,7.192c0.779,1.036,1.868,3.032,2.413,4.439
		C152.463,21.606,152.571,21.928,152.571,25.598L152.571,25.598z M152.156,135.297c0.002,0.832-0.03,2.141-0.08,4.167
		c-0.428,17-0.804,28.058-0.949,28.193c-0.242,0.228-4.146,0.858-5.321,0.858c-1.831,0-1.777,0.143-2.11-6.163
		c-0.222-4.22-0.721-20.212-0.747-24.018c-0.002-0.371,0.732-0.777,4.24-2.351c2.331-1.046,4.417-1.975,4.633-2.058
		C152.057,133.836,152.153,133.912,152.156,135.297L152.156,135.297z M149.713,177.836c0.012,0.367-0.015,0.821-0.061,1.402
		c-0.181,2.275-0.947,7.672-1.131,7.969c-0.394,0.637-1.559-2.642-2.372-6.657c-0.606-2.989-0.641-3.336-0.343-4.076
		c0.276-0.687,1.108-0.824,2.402-0.394C149.31,176.446,149.677,176.735,149.713,177.836z M147.825,57.433
		c0,0.971-5.892,27.747-7.128,32.391c-0.833,3.131-2.778,8.884-4.321,12.781c-3.509,8.866-4.705,13.401-4.705,17.875
		c0,3.406-0.09,3.478-3.079,6.271l-3.079,2.75h-15.265H94.973l-2.999-2.679l-2.988-2.731l-0.323-5.396
		c-0.25-4.281-0.802-6.651-2.615-11.303c-4.518-11.59-6.721-19.13-9.723-33.2c-1.675-7.851-3.188-14.892-3.362-15.651
		c-0.253-1.112,0.138-1.606,2.02-2.561c2.895-1.467,12.971-4.693,17.557-5.618c10.112-2.041,28.095-1.879,36.96,0.323
		C137.77,52.738,147.825,56.442,147.825,57.433L147.825,57.433z M144.646,201.279c0.083,1.712-1.397,2.23-4.897,4.095
		c-9.52,5.071-17.719,6.606-32.812,6.133c-11.841-0.372-16.392-1.378-24.735-5.478c-7.27-3.573-7.319-3.667-4.805-8.938
		c1.139-2.39,2.676-5.956,3.412-7.919c0.737-1.962,1.452-3.57,1.585-3.57c0.133,0,2.167,0.973,4.522,2.158
		c7.395,3.72,13.273,4.94,23.635,4.903c10.372-0.038,15.525-1.133,22.978-4.882c2.465-1.24,4.555-2.166,4.644-2.058
		c0.088,0.107,1.731,3.799,3.654,8.201C143.565,197.899,144.58,199.947,144.646,201.279L144.646,201.279z M88.664,5.978
		c0.022,0.246-0.021,0.55-0.111,0.928c-0.441,1.845-0.654,2.115-2.796,3.672c-2.542,1.847-3.382,2.899-6.037,7.485
		c-3.934,6.794-9.664,15.932-10.196,16.261c-1.142,0.703-1.333-0.134-1.404-6.416c-0.058-5.187,0.011-6.17,0.525-7.585
		c1.718-4.731,4.923-8.496,10.257-12.044c3.926-2.612,5.361-3.229,7.501-3.238C87.971,5.034,88.6,5.239,88.664,5.978L88.664,5.978z
		 M87.039,212.486l-0.929,0.091c-1.077,0.11-5.16-1.195-7.178-2.3c-0.754-0.413-2.358-0.959-3.564-1.21
		c-5.132-1.069-8.316-5.03-8.228-10.218c0.018-1.036,0.128-2.307,0.253-2.825c0.124-0.518,0.379-1.211,0.564-1.543
		c0.316-0.564,0.358-0.542,0.707,0.323c1.628,4.028,2.978,6.245,5.079,8.373c2.507,2.54,4.833,4.137,9.056,6.204
		c1.604,0.785,3.22,1.798,3.584,2.259L87.039,212.486z M77.62,137.88l-0.051,4.398c-0.061,5.339-0.428,15.836-0.747,21.517
		c-0.19,3.384-0.298,4.216-0.585,4.438c-0.489,0.378-2.417,0.338-4.766-0.111l-1.968-0.383l-0.152-0.989
		c-0.145-0.958-0.485-12.394-0.777-26.187c-0.101-4.778-0.075-6.758,0.091-6.698c0.129,0.047,2.197,0.968,4.594,2.048L77.62,137.88
		L77.62,137.88z M77.529,124.887c0.003,2.368-0.09,3.904-0.312,3.904c-0.289,0-8.106-4.834-8.663-5.356
		c-0.274-0.258-0.422-5.876-0.788-30.353l-0.101-6.405l1.242,0.898c0.682,0.497,2.161,1.5,3.281,2.229
		c1.242,0.808,2.078,1.508,2.14,1.786c0.557,2.485,1.823,11.981,2.393,17.895C77.224,114.697,77.522,120.94,77.529,124.887
		L77.529,124.887z M74.863,177.634c-0.012,0.913-0.235,2.208-0.636,3.975c-1.004,4.425-1.993,6.66-2.302,5.185
		c-0.298-1.422-0.812-5.604-0.939-7.677l-0.131-2.229l0.727-0.444c0.401-0.243,1.115-0.506,1.585-0.585
		C74.345,175.66,74.885,176.113,74.863,177.634L74.863,177.634z"/>
</g>
</svg>
